<?xml version="1.0" encoding="UTF-8"?><svg xmlns="http://www.w3.org/2000/svg" viewBox="0 0 100.48 100.48"><defs><style>.d{fill:#fff;stroke:#231f20;stroke-miterlimit:10;stroke-width:2px;}.e{fill:#231f20;}</style></defs><g id="a"/><g id="b"><g id="c"><g><rect class="d" x="1" y="1" width="98.48" height="98.48" rx="17.59" ry="17.59"/><g><path class="e" d="M50,83.94c-6.08,0-7.33-4.4-8.44-8.28-.73-2.55-1.48-5.19-3.42-7.34-1.48-1.64-2.94-1.9-4.79-2.23-4.21-.76-8.98-1.61-14.65-16.21-2.6-6.71-1.66-13.65,2.73-20.06,6.08-8.88,17.82-15.09,28.56-15.09,17.31,0,31.39,15.52,31.39,34.6s-14.08,34.6-31.39,34.6Zm0-66.21c-9.65,0-20.62,5.8-26.08,13.78-2.65,3.88-5.23,10.02-2.41,17.28,5.06,13.03,8.78,13.7,12.38,14.34,2.02,.36,4.32,.78,6.49,3.18,2.4,2.66,3.29,5.78,4.08,8.53,1.21,4.23,1.89,6.1,5.55,6.1,15.66,0,28.39-14.18,28.39-31.6s-12.74-31.6-28.39-31.6Z"/><path class="e" d="M40.41,58.57c-29.84-17.37,5.34-46.86,30.06-24.69-9.99-16.81-43.54-11.04-43.26,9.33,0,9.03,7.38,16.64,17.33,18.78-1.54-.97-2.93-2.12-4.12-3.42Z"/><path class="e" d="M61.54,59.5c-26.98-4.84-8.79-29.59,10.6-16.81-6-10.48-27.54-6.79-27.14,5.82-.36,9.3,12.99,15.02,21.43,10.6-1.54,.33-3.18,.49-4.89,.4Z"/></g></g></g></g></svg>