<?xml version="1.0" encoding="UTF-8"?><svg xmlns="http://www.w3.org/2000/svg" viewBox="0 0 100.48 100.48"><defs><style>.d{fill:#fff;}.e{fill:#231f20;}</style></defs><g id="a"/><g id="b"><g id="c"><g><g><rect class="d" x="1" y="1" width="98.48" height="98.48" rx="17.59" ry="17.59"/><path class="e" d="M81.9,100.48H18.59c-10.25,0-18.59-8.34-18.59-18.59V18.59C0,8.34,8.34,0,18.59,0h63.31c10.25,0,18.59,8.34,18.59,18.59v63.31c0,10.25-8.34,18.59-18.59,18.59ZM18.59,2C9.44,2,2,9.44,2,18.59v63.31c0,9.15,7.44,16.59,16.59,16.59h63.31c9.15,0,16.59-7.44,16.59-16.59V18.59c0-9.15-7.44-16.59-16.59-16.59H18.59Z"/></g><g><path class="d" d="M89.6,50.24s-17.62,25.01-39.36,25.01S10.88,50.24,10.88,50.24c0,0,17.62-25.01,39.36-25.01s39.36,25.01,39.36,25.01Z"/><path class="e" d="M50.24,76.75c-22.26,0-39.84-24.6-40.58-25.65l-.61-.86,.61-.86c.74-1.05,18.32-25.65,40.58-25.65s39.84,24.6,40.58,25.65l.61,.86-.61,.86c-.74,1.05-18.32,25.65-40.58,25.65ZM12.75,50.24c3.32,4.34,19.04,23.51,37.49,23.51s34.16-19.17,37.49-23.51c-3.32-4.34-19.04-23.51-37.49-23.51S16.08,45.9,12.75,50.24Z"/></g><g><circle class="d" cx="50.24" cy="50.24" r="19.49"/><path class="e" d="M50.24,70.74c-11.3,0-20.49-9.19-20.49-20.49s9.19-20.49,20.49-20.49,20.49,9.19,20.49,20.49-9.19,20.49-20.49,20.49Zm0-38.99c-10.2,0-18.49,8.3-18.49,18.49s8.3,18.49,18.49,18.49,18.49-8.3,18.49-18.49-8.3-18.49-18.49-18.49Z"/></g><circle class="e" cx="50.24" cy="50.24" r="9.05"/></g></g></g></svg>