<?xml version="1.0" encoding="UTF-8"?><svg xmlns="http://www.w3.org/2000/svg" viewBox="0 0 100.48 100.48"><defs><style>.d{fill:#fff;}.d,.e{stroke:#231f20;stroke-miterlimit:10;stroke-width:2px;}.e,.f{fill:#231f20;}</style></defs><g id="a"/><g id="b"><g id="c"><g><rect class="d" x="1" y="1" width="98.48" height="98.48" rx="17.59" ry="17.59"/><path class="f" d="M40.46,71.29c6.5,1.28,13.3,3.13,19.56,0-4.78,5.79-14.17,4.04-19.56,0h0Z"/><path class="e" d="M84.5,46.97l-2.7-4.97c-.39-.71-1.09-.83-1.57-.26-.48,.57-.56,1.61-.17,2.32l.53,.97c-4.71,4.18-9.58,7.87-14.64,10.96-10.35,6.32-22.68,5.31-31.38,0-5.06-3.09-9.93-6.78-14.64-10.96l.53-.97c.39-.71,.31-1.75-.17-2.32-.48-.57-1.19-.46-1.57,.26l-2.7,4.97c-.39,.71-.31,1.75,.17,2.32,.21,.24,.45,.36,.7,.36,.33,0,.65-.21,.87-.62l1.87-3.45c4.25,6.14,9.71,11.09,15.51,15.37,9.43,6.96,20.73,7.65,30.24,0,5.65-4.55,11.26-9.24,15.51-15.37l1.87,3.45c.22,.41,.55,.62,.87,.62,.25,0,.49-.12,.7-.36,.48-.57,.56-1.61,.17-2.32Z"/></g></g></g></svg>