<?xml version="1.0" encoding="UTF-8"?><svg xmlns="http://www.w3.org/2000/svg" viewBox="0 0 100.48 100.48"><defs><style>.d{fill:none;stroke:#231f20;stroke-miterlimit:10;stroke-width:2px;}.e{fill:#231f20;}</style></defs><g id="a"/><g id="b"><g id="c"><g>
    <rect class="d" x="1" y="1" width="98.48" height="98.48" rx="17.59" ry="17.59"/>
    <path class="e" d="M76.45,52.16l-13.77-23.85c-.67,.74-1.44,1.42-2.3,2.02l13.47,23.33c1.95,3.38,1.95,7.42,0,10.8-1.84,3.19-5.07,5.15-8.71,5.36,.74-1.81,1.16-3.8,1.16-5.87,0-3.76-1.34-7.21-3.56-9.9,1.3,2.24,2.06,4.86,2.06,7.68,0,7.71-5.61,14.04-12.77,14.73-.43,.04-.87,.07-1.31,.07h0c-.44,0-.88-.02-1.31-.07-7.16-.7-12.77-7.02-12.77-14.73,0-2.82,.76-5.44,2.06-7.68-2.22,2.69-3.56,6.15-3.56,9.9,0,2.09,.42,4.08,1.17,5.91-3.84-.05-7.28-2.05-9.2-5.39-1.95-3.38-1.95-7.42,0-10.8l13.47-23.33c-.86-.6-1.63-1.28-2.3-2.02l-13.77,23.85c-2.49,4.32-2.49,9.48,0,13.8s6.96,6.9,11.95,6.9h1.51c2.82,4.02,7.48,6.66,12.76,6.66s9.94-2.64,12.76-6.66h1.03c4.99,0,9.45-2.58,11.95-6.9,2.49-4.32,2.49-9.48,0-13.8Z"/></g></g></g></svg>