<svg xmlns="http://www.w3.org/2000/svg" xmlns:xlink="http://www.w3.org/1999/xlink" viewBox="0 0 612 792" style="enable-background:new 0 0 612 792" xml:space="preserve"><style>.st0{stroke:#000;stroke-width:5;stroke-miterlimit:10}.st0,.st1{fill:#c49a6c}.st3{fill:#8b5e3c}.st8{fill:#ee2a7b;stroke-width:5}.st15,.st8,.st9{stroke:#000;stroke-miterlimit:10}.st9{display:none;fill:#fff;stroke-width:6;stroke-linejoin:round}.st15{fill:none;stroke-width:5}.st16{opacity:.45;fill:#fff}.st18{fill:#414042;stroke:#000;stroke-width:5;stroke-miterlimit:10}</style><g id="Ear-L"><path class="st0" d="M109.2 522.5c0 36.8-12.6 80.1-34.1 80.1-14.2 0-19.6-26.1-26.4-45.5-3.5-10-17-13.7-17-44.5 0-36.8 17-56.7 38.5-56.7s39 29.8 39 66.6z"/><path class="st1" d="M91.1 492.5c-1.7 0-24-38.5-37.6 0s9.7 73.7 18.8 71.2c9-2.5 24.7-14.1 18.8-23.4"/><path d="M91.1 492.5c-.7-.3-1.4-1.2-1.9-1.8-4-4.3-8.3-9-13.5-11.9-8.7-5.2-14.6.9-17.9 8.8-3.4 7.7-5.2 16.1-5.8 24.5-.7 13.4 2.1 27.2 8.6 39 2.4 4 5.3 8.5 9.5 10.6.8.3 1.4.4 2.1.2 3.8-1 7.4-2.9 10.7-5.1 4-2.8 8.3-6.5 9.1-11.6.3-1.7-.1-3.4-.9-5 6.5 9.6-8.1 20.8-16 24.2-.9.4-1.8.8-2.8 1-1.3.3-2.5 0-3.5-.3-5.4-2.2-8.9-7.1-12-11.7-9.4-15.5-12.1-34.6-8.2-52.2 5.9-25.8 20.6-39.5 39.3-12.8l1.5 2.2c.5.5 1 1.6 1.7 1.9z"/></g><g id="Ear-R"><path class="st0" d="M497.5 519.8c0 36.8 10.7 80.1 29.1 80.1 12.1 0 16.7-26.1 22.5-45.5 3-10 14.5-13.7 14.5-44.5 0-36.8-14.5-56.7-32.9-56.7-18.3-.1-33.2 29.8-33.2 66.6z"/><path class="st1" d="M512.9 489.8c1.5 0 20.5-38.5 32 0 11.6 38.5-8.3 73.7-16 71.2-7.7-2.5-21.1-14.1-16-23.4"/><path d="M512.9 489.8c.6-.4 1-1.4 1.4-2l1.3-2.2c17.2-28.8 29.8-9.4 34.1 13.9 3 16.8.9 34.6-6.7 49.9-2.6 5-9.3 16.5-16.2 12.4-7.9-3.9-19.4-14.9-13.9-24.3-1.4 3.1-.8 6.5.8 9.3 3.1 5.4 8.7 9.7 14.4 12 .5.2 1 .4 1.5.5.5.1 1-.2 1.7-.6 1.1-.7 2.1-1.8 3.1-3 3.7-5 6.3-11 8.1-17.1 3.7-12.3 4.6-25.5 2.6-38.2-1.3-7.5-4-21.2-10.5-25.4-6.7-3.6-14.4 6.4-18.3 11.1l-1.6 1.9c-.6.5-1.1 1.5-1.8 1.8z"/></g><g id="Potato"><path d="M274.6 140.2c-110.3-15.1-171.3 140.1-112.2 215-103.2 96.3-81.4 376 106 392C459 758.3 587 523.1 447.1 393.2c0 0 24.7 10.5 35.7-66 25.9-176.3-64.1-214.4-208.2-187z" style="fill:#a97c50"/><path class="st3" d="M462 304c-11.1 76.5-35.7 66-35.7 66 8 7.5 15.2 15.3 21.5 23.3 3.5 1 25.1 4 35.3-66.2 12.6-86.5-2.6-139.7-38.3-168.2 20 31.2 27 78.2 17.2 145.1zM448.6 394.5C550.5 527.3 426.7 734.4 247.5 724c-40.4-3.5-73.1-19.2-98.5-42.7 27.4 36.1 66.9 61.3 119.5 65.8 189.9 11.1 317.7-222.4 180.1-352.6z"/><path d="M146.1 366.3c7.9-9.8 17.8-17.6 28.8-23.8 12.6-6.9 23.1-9.3 37.2-5.2-3 1.2-6.1 1.8-9 2.6-8.7 2.1-15.9 6.2-23.8 10.5-10.8 5.8-21.5 12.1-33.2 15.9zM422.7 366.8c7.4 6.9 13.4 13.9 21.5 19.5 4.9 3.5 9.5 5.5 15.6 8-17.5 8.1-37.5-9.7-37.1-27.5zM295.6 506c-11-4.7-21.2-8.9-32.8-10.7-7.1-1.2-13.5-1.2-21.1-1.5 16.5-13.5 44.6-6.5 53.9 12.2zM398.6 253.2c-6.6-.6-13.2-1.6-19.7-2.2-3.6-.4-7.1-.7-10.8-1.3-1.6-.2-3.2-.4-5-.9 1.2-1.3 2.5-2.5 4-3.4 10.1-6.3 26.2-3.6 31.5 7.8zM318.9 169.2c-6.5 1.5-13 2.6-19.4 4.1-3.6.7-7 1.5-10.6 2.2-1.6.3-3.1.6-5 .7.7-1.6 1.6-3.1 2.7-4.5 7.6-9.2 23.8-11.7 32.3-2.5zM415.3 605.8c-6.5-1-11.7-2.1-17.8-3-6-1-11.9-1.3-18-2.7 9.5-10.6 30.2-7.8 35.8 5.7zM431.8 462.4c-6.5-1-11.7-2.1-17.8-3-6-1-11.9-1.3-18-2.7 9.6-10.6 30.3-7.8 35.8 5.7zM281.1 670c6.5-.8 11.9-1.1 18-1.8 6-.6 11.8-1.9 18-2.2-6.3 12.8-27 15.5-36 4zM272.3 333.5c6.5-.8 11.9-1.1 18-1.8 6-.6 11.8-1.9 18-2.2-6.3 12.7-27.1 15.5-36 4zM184.7 583.7c-6.5 1-11.8 1.5-17.9 2.6-6 .9-11.8 2.3-17.9 2.9 5.8-13.1 26.4-16.6 35.8-5.5zM218.9 413.8c-6.5 1-11.8 1.5-17.9 2.6-6 .9-11.8 2.3-17.9 2.9 5.8-13.1 26.4-16.7 35.8-5.5zM230.9 257.3c-6.5 1.3-11.7 2.1-17.8 3.4-5.9 1.1-11.6 2.9-17.8 3.7 5.3-13.2 25.7-17.8 35.6-7.1z"/><g style="opacity:.49"><image style="overflow:visible" width="1457" height="2865" xlink:href="3F9AA82F.png" transform="matrix(.24 0 0 .24 65.04 96)"/></g><path d="M274.6 140.2c-110.3-15.1-171.3 140.1-112.2 215-103.2 96.3-81.4 376 106 392C459 758.3 587 523.1 447.1 393.2c0 0 24.7 10.5 35.7-66 25.9-176.3-64.1-214.4-208.2-187z" style="fill:none;stroke:#000;stroke-width:9;stroke-linejoin:round;stroke-miterlimit:10"/></g><g id="Mouth"><ellipse cx="289.1" cy="597.9" rx="106" ry="18.8" style="stroke:#000;stroke-width:5;stroke-miterlimit:10"/><path class="st8" d="M324.5 613.1c0 7.2-15.8 13-35.3 13s-35.3-5.8-35.3-13 21.3-15.3 35.3-10.1c15.7-4.4 35.3 2.9 35.3 10.1z"/><path class="st8" d="M344.5 613.1c0 7.2-25.4 13-56.8 13s-56.8-5.8-56.8-13 34.3-15.3 56.8-10.1c25.3-4.4 56.8 2.9 56.8 10.1z"/><image style="overflow:visible;opacity:.25" width="1179" height="439" xlink:href="3F9AA82D.png" transform="matrix(.24 0 0 .24 148.92 552.6)"/><path d="M416.5 588.1c.8-.8 1.3-1.6 1.3-2.5 0-11-57.7-7.5-123-19.9-63.8 11-123 8.9-123 19.9 0 .4.1.7.2 1-.5.3-.7.8-.7 1.6 0 11 53.9 44.7 121.2 46.7 62.9-4.2 124.9-34.1 124.9-45.1-.2-.8-.4-1.4-.9-1.7zm-219.9 5c21.8.7 56-2.3 94.8-8.7 40.6 6.9 80 9.9 103.7 8.5-21.3 7.5-56.9 20.6-101.3 24.3-38.8-2.1-74.4-15.6-97.2-24.1z" style="fill:#be1e2d;stroke:#000;stroke-width:6;stroke-miterlimit:10"/></g><g id="Nose"><path class="st0" d="m280.1 444-32.8 60.5c-24 23.9 6.5 35.7 16.8 30.1l67.6-.6c13.6 4.5 30-11.9 12.2-26.5l-30-64.5c-4.2-20.8-30.9-18.4-33.8 1z"/><ellipse class="st0" cx="297.9" cy="523.8" rx="31.6" ry="22.3"/><ellipse class="st1" cx="298.1" cy="515.7" rx="34.7" ry="28.5"/><path d="M268.9 510.6c0-10.3 5.9-18.6 13.2-18.6s.9 10.2.9 20.5 6.4 16.7-.9 16.7-13.2-8.3-13.2-18.6z" style="opacity:.23;fill:#fff"/></g><g id="Eye-R"><image style="overflow:visible;opacity:.25" width="583" height="426" xlink:href="3F9AA833.png" transform="matrix(.24 0 0 .24 306.84 371.4)"/><radialGradient id="SVGID_1_" cx="392.552" cy="419.92" r="48.976" gradientTransform="matrix(.9476 0 0 .799 8.857 81.989)" gradientUnits="userSpaceOnUse"><stop offset=".253" style="stop-color:#000"/><stop offset=".255" style="stop-color:#00080a"/><stop offset=".268" style="stop-color:#002a3a"/><stop offset=".281" style="stop-color:#004a65"/><stop offset=".296" style="stop-color:#00658a"/><stop offset=".312" style="stop-color:#007caa"/><stop offset=".329" style="stop-color:#008ec3"/><stop offset=".347" style="stop-color:#009cd7"/><stop offset=".368" style="stop-color:#00a6e5"/><stop offset=".395" style="stop-color:#00aced"/><stop offset=".443" style="stop-color:#00aeef"/><stop offset=".486" style="stop-color:#02afef"/><stop offset=".501" style="stop-color:#09b1f0"/><stop offset=".512" style="stop-color:#14b5f0"/><stop offset=".521" style="stop-color:#25baf1"/><stop offset=".528" style="stop-color:#3bc1f3"/><stop offset=".535" style="stop-color:#57caf4"/><stop offset=".541" style="stop-color:#77d4f6"/><stop offset=".547" style="stop-color:#9de0f9"/><stop offset=".552" style="stop-color:#c8eefc"/><stop offset=".557" style="stop-color:#f6fcfe"/><stop offset=".557" style="stop-color:#fff"/><stop offset=".676" style="stop-color:#fdfdfd"/><stop offset=".737" style="stop-color:#f5f5f5"/><stop offset=".785" style="stop-color:#e8e8e8"/><stop offset=".826" style="stop-color:#d5d5d5"/><stop offset=".863" style="stop-color:#bcbcbc"/><stop offset=".896" style="stop-color:#9e9e9e"/><stop offset=".927" style="stop-color:#7a7a7a"/><stop offset=".956" style="stop-color:#505050"/><stop offset=".983" style="stop-color:#222"/><stop offset="1" style="stop-color:#000"/></radialGradient><path d="M348.7 446.5c13.7-.5 32.4 1 53.6 4.4 18.2-5.7 30.8-18.3 30.8-32.9 0-9.2-5-17.6-13.2-24-24.8-1.8-45.2-5.4-57-10-20 5.1-34.3 18.4-34.3 34 0 11.6 7.9 21.9 20.1 28.5z" style="fill:url(#SVGID_1_)"/><path class="st15" d="M348.7 446.5c13.7-.5 32.4 1 53.6 4.4 18.2-5.7 30.8-18.3 30.8-32.9 0-9.2-5-17.6-13.2-24-24.8-1.8-45.2-5.4-57-10-20 5.1-34.3 18.4-34.3 34 0 11.6 7.9 21.9 20.1 28.5z"/><path class="st16" d="M358.4 414.8c.4-6 4.3-10.7 8.5-10.4s.1 6.1-.3 12.1 3 10.1-1.2 9.7-7.4-5.4-7-11.4z"/></g><g id="Eye-L"><image style="overflow:visible;opacity:.25" width="583" height="417" xlink:href="3F9AA835.png" transform="matrix(.24 0 0 .24 142.68 366.84)"/><radialGradient id="SVGID_00000181785432592073482850000015439616159267196302_" cx="219.241" cy="412.918" r="48.33" gradientTransform="matrix(.9476 0 0 .799 8.857 81.989)" gradientUnits="userSpaceOnUse"><stop offset=".253" style="stop-color:#000"/><stop offset=".255" style="stop-color:#00080a"/><stop offset=".268" style="stop-color:#002a3a"/><stop offset=".281" style="stop-color:#004a65"/><stop offset=".296" style="stop-color:#00658a"/><stop offset=".312" style="stop-color:#007caa"/><stop offset=".329" style="stop-color:#008ec3"/><stop offset=".347" style="stop-color:#009cd7"/><stop offset=".368" style="stop-color:#00a6e5"/><stop offset=".395" style="stop-color:#00aced"/><stop offset=".443" style="stop-color:#00aeef"/><stop offset=".486" style="stop-color:#02afef"/><stop offset=".501" style="stop-color:#09b1f0"/><stop offset=".512" style="stop-color:#14b5f0"/><stop offset=".521" style="stop-color:#25baf1"/><stop offset=".528" style="stop-color:#3bc1f3"/><stop offset=".535" style="stop-color:#57caf4"/><stop offset=".541" style="stop-color:#77d4f6"/><stop offset=".547" style="stop-color:#9de0f9"/><stop offset=".552" style="stop-color:#c8eefc"/><stop offset=".557" style="stop-color:#f6fcfe"/><stop offset=".557" style="stop-color:#fff"/><stop offset=".722" style="stop-color:#fdfdfd"/><stop offset=".782" style="stop-color:#f6f6f6"/><stop offset=".824" style="stop-color:#ebebeb"/><stop offset=".858" style="stop-color:#dadada"/><stop offset=".888" style="stop-color:#c4c4c4"/><stop offset=".914" style="stop-color:#a8a8a8"/><stop offset=".937" style="stop-color:#888"/><stop offset=".959" style="stop-color:#626262"/><stop offset=".979" style="stop-color:#373737"/><stop offset=".997" style="stop-color:#090909"/><stop offset="1" style="stop-color:#000"/></radialGradient><path style="fill:url(#SVGID_00000181785432592073482850000015439616159267196302_)" d="M238.1 379.7c-14.3 3.8-34.9 6.5-58.8 7.6-9.3 6.5-15 15.5-15 25.3 0 13.3 10.3 24.8 25.7 31.1 21.9-1.9 40.4-1.8 52.2.4 15.9-6.2 26.7-18 26.7-31.5 0-14.6-12.6-27.3-30.8-32.9z"/><path class="st15" d="M238.1 379.7c-14.3 3.8-34.9 6.5-58.8 7.6-9.3 6.5-15 15.5-15 25.3 0 13.3 10.3 24.8 25.7 31.1 21.9-1.9 40.4-1.8 52.2.4 15.9-6.2 26.7-18 26.7-31.5 0-14.6-12.6-27.3-30.8-32.9z"/><path class="st16" d="M193.6 411.4c0-5.4 3.1-9.8 7-9.8s.5 5.4.5 10.8 3.4 8.8-.5 8.8-7-4.4-7-9.8z"/></g><g id="Hat"><image style="overflow:visible;opacity:.4" width="1998" height="1500" xlink:href="3F9AA837.png" transform="matrix(.24 0 0 .24 80.07 27.95)"/><ellipse transform="rotate(-65.467 332.82 224.389)" class="st18" cx="332.8" cy="224.4" rx="83.2" ry="214.4"/><path class="st18" d="M498.9 200.4c1.1-1.2 2-2.6 2.7-4.1 10.8-23.6-38.3-69-109.6-101.6S254.2 54.9 243.4 78.5l-32.3 70.9.1.1c-.4.6-.7 1.2-1 1.8-10.8 23.6 38.3 69 109.6 101.6s137.8 39.8 148.6 16.3c.7-1.5 1.1-3.1 1.3-4.7l29.2-64.1z"/><ellipse transform="rotate(-65.467 372.53 137.37)" class="st18" cx="372.5" cy="137.4" rx="46.9" ry="141.9"/></g></svg>